<svg width="168" height="40" viewBox="0 0 168 40" fill="none" xmlns="http://www.w3.org/2000/svg">
<path fill-rule="evenodd" clip-rule="evenodd" d="M19.4054 32.3943C30.1123 32.3943 38.8108 25.1269 38.8108 16.1972C38.8108 15.5205 38.7812 14.829 38.6779 14.1523H16.7175L16.4812 14.7554C22.9202 16.2413 19.6121 21.8022 14.8567 31.9529C16.3188 32.2472 17.8547 32.3943 19.4054 32.3943Z" fill="#F15A22"/>
<path fill-rule="evenodd" clip-rule="evenodd" d="M79.9697 6.14939H61.0369C56.001 6.51717 52.6338 8.47375 50.389 11.7397C48.351 14.5642 47.1253 17.8301 47.0071 21.5521C46.9628 26.8482 49.6949 29.8198 55.233 30.4524H69.1742C72.3198 30.423 74.4022 28.8194 75.3916 25.6271L77.7841 16.0942H64.1382C63.769 17.1534 63.4293 18.2126 63.0749 19.2718H69.4548C68.8345 21.2873 68.2143 23.3174 67.594 25.3329C67.2987 26.7157 66.5898 27.466 65.2754 27.3189H59.2352C57.0938 27.2159 55.7942 26.0685 55.233 23.8912C55.0558 23.2733 55.0558 22.8173 55.1001 22.1847C55.2625 19.2277 56.1339 16.5796 57.2858 14.0199C58.7478 11.2836 60.8302 9.75365 63.5623 9.4153H78.9212L79.9697 6.14939Z" fill="#064F9B"/>
<path fill-rule="evenodd" clip-rule="evenodd" d="M139.988 6.17884H123.831C114.631 6.53191 112.416 13.255 111.869 17.3447C111.323 21.4197 111.264 29.1578 119.046 30.526H134.656L135.38 27.4366H124.171C120.656 26.7158 119.106 23.9207 119.49 19.0218H135.838L136.842 16.2266H119.933C120.361 12.6959 122.015 9.95965 126.194 8.9887H139.087L139.988 6.17884Z" fill="#064F9B"/>
<path fill-rule="evenodd" clip-rule="evenodd" d="M167.442 6.17884H151.285C142.085 6.53191 139.87 13.255 139.323 17.3447C138.777 21.4197 138.718 29.1578 146.501 30.526H162.096L162.834 27.4366H151.625C148.11 26.7158 146.56 23.9207 146.944 19.0218H163.277L164.296 16.2266H147.387C147.815 12.6959 149.469 9.95965 153.648 8.9887H166.541L167.442 6.17884Z" fill="#064F9B"/>
<path fill-rule="evenodd" clip-rule="evenodd" d="M8.5065 29.5844L17.2493 11.2247H37.8804C35.3551 4.72233 28.0153 0 19.4054 0C8.71326 0 0 7.26738 0 16.1971C0 21.7433 3.36717 26.6716 8.5065 29.5844Z" fill="#064F9B"/>
<path fill-rule="evenodd" clip-rule="evenodd" d="M110.289 13.1814C111.101 9.78307 110.245 6.4436 103.953 6.1788L95.3731 6.14939H84.6513L78.0647 30.5407H86.01L91.8287 9.13578H101C101.915 9.32702 102.462 9.8566 102.713 10.5333C103.318 12.1663 102.521 14.2847 100.468 15.4322C99.2866 16.0942 97.7507 16.2119 95.6832 16.1678H91.681L97.7507 27.4513C98.9026 29.5403 100.66 30.6437 103.112 30.5113H108.546L102.462 19.1247C105.829 19.1835 109.432 16.7562 110.289 13.1814Z" fill="#064F9B"/>
<path d="M4.31234 34.4244L3.32285 36.7194C3.32285 36.7194 3.249 36.9106 3.13085 37.2195C3.01271 37.5285 2.90936 37.7933 2.83552 38.014C2.83552 37.7345 2.8798 37.4549 2.90934 37.1754C2.92411 36.8812 2.9389 36.7488 2.9389 36.7341L2.96842 34.4244H1.18148L0 39.8529H1.19622L2.0085 35.6602L1.94941 39.8529H2.90934L4.69628 35.6602L3.67731 39.8529H4.87354L6.06976 34.4244H4.31234Z" fill="#064F9B"/>
<path d="M5.37565 39.8529H6.66048L7.0592 38.8083H8.06343L7.98961 39.8529H9.2597V34.4244H7.76809L5.37565 39.8529ZM8.1373 37.8374H7.39889L8.29973 35.4689L8.1373 37.8374Z" fill="#064F9B"/>
<path d="M10.958 34.4244L9.76176 39.8529H11.0318L12.228 34.4244H10.958Z" fill="#064F9B"/>
<path d="M16.2156 35.1306C16.1122 34.8952 15.9497 34.7187 15.7282 34.601C15.5067 34.4833 15.2113 34.4391 14.8569 34.4391C14.5024 34.4391 14.1923 34.4833 13.9117 34.601C13.6311 34.7187 13.38 34.8952 13.188 35.1306C13.0404 35.2924 12.9075 35.5131 12.7893 35.822C12.6859 36.1162 12.553 36.5723 12.4053 37.2196C12.2576 37.8522 12.1838 38.3229 12.1543 38.6171C12.1395 38.9114 12.1691 39.1467 12.2429 39.3086C12.3463 39.5292 12.5087 39.7058 12.7302 39.8235C12.9665 39.9412 13.2619 40 13.6015 40C13.9412 40 14.2809 39.9412 14.5467 39.8235C14.8273 39.7058 15.0784 39.5292 15.2704 39.3086C15.418 39.132 15.5657 38.8967 15.6839 38.6025C15.7725 38.3082 15.9054 37.8522 16.0531 37.2196C16.2008 36.5723 16.2894 36.1162 16.3042 35.822C16.3189 35.5131 16.2894 35.2924 16.2156 35.1306ZM14.8569 36.7341L14.6353 37.6904C14.5172 38.2641 14.399 38.6319 14.2957 38.779C14.1775 38.9114 14.0298 38.9849 13.8378 38.9849C13.6311 38.9849 13.5129 38.9114 13.4686 38.779C13.4243 38.6172 13.4686 38.2641 13.6015 37.6904L13.8231 36.7341C13.9413 36.1456 14.0594 35.7926 14.1627 35.6455C14.2809 35.5131 14.4286 35.4395 14.6206 35.4395C14.8273 35.4395 14.9455 35.5131 14.9898 35.6455C15.0488 35.7926 14.9898 36.1456 14.8569 36.7341Z" fill="#064F9B"/>
<path d="M19.8632 34.498C19.6712 34.4539 19.3316 34.4391 18.859 34.4391H17.4265L16.2302 39.8676H17.4855L17.9729 37.705H18.2239C18.4602 37.705 18.6079 37.7639 18.6522 37.8816C18.7113 37.9993 18.7113 38.2347 18.6374 38.5583C18.6374 38.6025 18.6374 38.676 18.5931 38.8084C18.5636 38.9261 18.5341 39.0291 18.5193 39.1174C18.475 39.2645 18.4602 39.3969 18.4455 39.5145C18.4455 39.6322 18.4455 39.7499 18.4455 39.8676H19.9223C19.7746 39.7058 19.7598 39.3233 19.8632 38.7201C19.8927 38.5877 19.9223 38.4848 19.9223 38.4259V38.3965C20.0552 37.7492 19.937 37.3373 19.5826 37.1607C19.8484 37.0283 20.0552 36.8518 20.2176 36.6458C20.3801 36.4399 20.4835 36.1751 20.5425 35.8661C20.6016 35.6013 20.6164 35.3807 20.5721 35.1894C20.5425 35.0129 20.4687 34.8511 20.3358 34.7187C20.2324 34.6157 20.07 34.5421 19.8632 34.498ZM18.9476 36.5429C18.7999 36.6459 18.6227 36.7047 18.3421 36.7047H18.2682C18.2682 36.7047 18.2092 36.7047 18.1944 36.7047L18.4898 35.3807H18.6374C18.9033 35.3807 19.0805 35.4248 19.1691 35.5278C19.2577 35.6308 19.2725 35.7926 19.2282 36.028C19.1691 36.2781 19.0805 36.4546 18.9476 36.5576" fill="#064F9B"/>
<path d="M26.0216 36.4693H24.4562L24.6777 35.4836H26.3613L26.5976 34.4244H23.6291L22.4329 39.8529H23.7177L24.2199 37.5579H25.7705L26.0216 36.4693Z" fill="#064F9B"/>
<path d="M25.4456 39.8529H26.7304L27.1291 38.8083H28.1186L28.0596 39.8529H29.3296V34.4244H27.838L25.4456 39.8529ZM28.2072 37.8374H27.4688L28.3697 35.4689L28.2072 37.8374Z" fill="#064F9B"/>
<path d="M34.0407 35.7926C34.0998 35.5278 34.0998 35.3071 34.0407 35.1159C33.9964 34.9099 33.8783 34.7628 33.7158 34.6451C33.5977 34.5716 33.45 34.5127 33.2876 34.4833C33.1103 34.4538 32.8149 34.4391 32.3867 34.4391H31.0132L29.8318 39.8676H31.3529C31.7812 39.8676 32.1061 39.8382 32.3276 39.7646C32.5492 39.7205 32.7559 39.6028 32.9184 39.4557C33.0956 39.3086 33.258 39.132 33.3909 38.9114C33.5091 38.6907 33.6125 38.4553 33.6568 38.2199C33.7306 37.9257 33.7158 37.6756 33.642 37.455C33.5681 37.249 33.4205 37.0872 33.2137 36.9695C33.45 36.7929 33.642 36.6164 33.7749 36.4252C33.9078 36.2486 34.0112 36.028 34.0407 35.7926ZM32.0765 38.7201C31.8993 38.8525 31.6926 38.9114 31.4267 38.9114H31.3234L31.6187 37.4991H31.7073C32.0027 37.4991 32.1947 37.5433 32.2981 37.6462C32.4162 37.7639 32.4457 37.9257 32.3867 38.1611C32.3276 38.4112 32.2242 38.5877 32.0765 38.7201ZM32.5048 36.3958C32.3572 36.4987 32.1652 36.5576 31.9141 36.5576H31.8255L32.1061 35.3218H32.2242C32.4458 35.3218 32.6082 35.366 32.7116 35.4837C32.8149 35.5719 32.8149 35.719 32.8002 35.9103C32.7411 36.1309 32.6525 36.2928 32.5048 36.3958Z" fill="#064F9B"/>
<path d="M38.3383 35.8661C38.3974 35.6013 38.4122 35.3807 38.3826 35.1894C38.3383 35.0129 38.2645 34.8511 38.1464 34.7187C38.0282 34.6157 37.8657 34.5421 37.659 34.498C37.467 34.4539 37.1273 34.4391 36.6547 34.4391H35.2222L34.026 39.8676H35.2813L35.7686 37.705H36.0345C36.256 37.705 36.4037 37.7639 36.448 37.8816C36.5218 37.9993 36.5071 38.2347 36.4332 38.5583C36.4332 38.6025 36.4332 38.676 36.3889 38.8084C36.3594 38.9261 36.3298 39.0291 36.3151 39.1174C36.2708 39.2645 36.256 39.3969 36.2412 39.5145C36.2412 39.6322 36.2412 39.7499 36.2412 39.8676H37.7181C37.5704 39.7058 37.5556 39.3233 37.6738 38.7201C37.6885 38.5877 37.7181 38.4848 37.7328 38.4259V38.3965C37.851 37.7492 37.7328 37.3373 37.3932 37.1607C37.659 37.0283 37.851 36.8518 38.0134 36.6458C38.1759 36.4399 38.2792 36.1751 38.3383 35.8661ZM36.7434 36.5429C36.6104 36.6459 36.4185 36.7047 36.1526 36.7047H36.064C36.064 36.7047 36.0049 36.7047 35.9902 36.7047L36.2855 35.3807H36.4332C36.6991 35.3807 36.891 35.4248 36.9797 35.5278C37.0535 35.6308 37.0683 35.7926 37.0387 36.028C36.9797 36.2781 36.8763 36.4546 36.7434 36.5576" fill="#064F9B"/>
<path d="M39.4755 34.4244L38.2793 39.8529H39.5641L40.7603 34.4244H39.4755Z" fill="#064F9B"/>
<path d="M44.3932 37.808H43.1379L43.0788 38.0434C43.005 38.4112 42.9016 38.6613 42.813 38.7937C42.6949 38.9261 42.5472 38.9996 42.3552 38.9996C42.1484 38.9996 42.0303 38.8967 42.0008 38.7201C41.9564 38.5289 42.0451 38.0287 42.2223 37.2049V37.1166C42.4143 36.3516 42.5619 35.8809 42.6801 35.6896C42.7982 35.5278 42.9459 35.4248 43.1527 35.4248C43.3447 35.4248 43.4628 35.4984 43.5071 35.6602C43.5514 35.7926 43.5366 36.0427 43.4776 36.4104H44.7034V36.3663C44.851 35.719 44.8215 35.2336 44.6 34.9099C44.3637 34.5863 43.9649 34.4391 43.3594 34.4391C43.005 34.4391 42.7096 34.4833 42.429 34.601C42.1632 34.7187 41.9122 34.8952 41.7054 35.1159C41.5725 35.2924 41.4248 35.5131 41.3214 35.8073C41.2033 36.1015 41.0704 36.5723 40.9374 37.2049C40.7898 37.8522 40.7012 38.3229 40.6864 38.6171C40.6716 38.9114 40.6864 39.1321 40.7602 39.2939C40.8784 39.5293 41.0261 39.7058 41.2623 39.8235C41.4839 39.9412 41.7792 39.9853 42.1337 39.9853C42.7392 39.9853 43.2117 39.8382 43.5662 39.5145C43.9354 39.2056 44.1865 38.7201 44.3342 38.0876C44.3342 37.9993 44.3637 37.9552 44.3785 37.911C44.3785 37.8816 44.3784 37.8375 44.3932 37.808Z" fill="#064F9B"/>
<path d="M44.349 39.8529H45.6338L46.0326 38.8083H47.0368L46.963 39.8529H48.233L48.2625 34.4244H46.7562L44.349 39.8529ZM47.1106 37.8374H46.3722L47.2731 35.4689L47.1106 37.8374Z" fill="#064F9B"/>
<path d="M52.0136 35.2776C51.9546 35.5719 51.8955 35.9102 51.8216 36.3221C51.7478 36.7341 51.674 37.2196 51.6001 37.7786L51.2752 34.4244H49.9461L48.7499 39.8676H49.887L50.0938 38.9555C50.1824 38.5436 50.271 38.1316 50.3448 37.7197C50.4039 37.2931 50.463 36.8517 50.5073 36.4104L50.8174 39.8676H52.1465L53.3428 34.4244H52.2056L52.0136 35.2776Z" fill="#064F9B"/>
<path d="M57.2416 34.4244H53.8597L53.6381 35.4689H54.6572L53.6972 39.8529H54.9821L55.942 35.4689H57.0053L57.2416 34.4244Z" fill="#064F9B"/>
<path d="M56.5623 39.8676H59.5307L59.7818 38.7643H58.0834L58.3345 37.5726H59.9147L60.1362 36.484H58.5855L58.7923 35.4837H60.5054L60.7269 34.4391H57.7585L56.5623 39.8676Z" fill="#064F9B"/>
<path d="M66.4718 35.0129C66.3684 34.7922 66.2059 34.6451 65.9697 34.5568C65.7481 34.4685 65.3641 34.4244 64.8473 34.4244H63.459L62.2628 39.8529H63.6658C64.1679 39.8529 64.5666 39.8087 64.8325 39.7204C65.0983 39.6322 65.3346 39.4851 65.5266 39.2791C65.6743 39.1026 65.8072 38.8819 65.9106 38.6171C66.0139 38.367 66.1468 37.8668 66.3093 37.146C66.4717 36.4104 66.5604 35.925 66.5751 35.6602C66.5751 35.3806 66.5456 35.1747 66.4718 35.0129ZM65.054 36.8959L65.0097 37.146C64.8768 37.6903 64.7882 38.0728 64.7439 38.2493C64.6848 38.4406 64.6257 38.573 64.5519 38.6318C64.478 38.7201 64.3894 38.7789 64.2861 38.8083C64.1827 38.8525 64.0793 38.8672 63.9464 38.8672H63.7544L64.5076 35.4395C64.5076 35.4395 64.5519 35.4248 64.5814 35.4248H64.6848C64.8325 35.4248 64.9506 35.4395 65.0392 35.4836C65.1279 35.5278 65.1869 35.5866 65.2165 35.6602C65.246 35.719 65.2607 35.822 65.246 35.9838C65.2164 36.1456 65.1574 36.4546 65.054 36.8959Z" fill="#064F9B"/>
<path d="M66.4865 39.8676H69.4549L69.6912 38.7643H68.0076L68.2587 37.5726H69.8241L70.0604 36.484H68.495L68.7165 35.4837H70.4148L70.6511 34.4391H67.6827L66.4865 39.8676Z" fill="#064F9B"/>
<path d="M71.7882 39.8529H73.0731L73.4718 38.8083H74.4613L74.3874 39.8529H75.6723V34.4244H74.1807L71.7882 39.8529ZM74.5499 37.8374H73.8115L74.7123 35.4689L74.5499 37.8374Z" fill="#064F9B"/>
<path d="M79.7926 34.498C79.6006 34.4539 79.261 34.4391 78.7884 34.4391H77.3559L76.1597 39.8676H77.4297L77.9171 37.705H78.1681C78.4044 37.705 78.5521 37.7639 78.5964 37.8816C78.6555 37.9993 78.6407 38.2347 78.5669 38.5583C78.5669 38.6025 78.5669 38.676 78.5226 38.8084C78.493 38.9261 78.4635 39.0291 78.4487 39.1174C78.4192 39.2645 78.3897 39.3969 78.3749 39.5145C78.3749 39.6322 78.3749 39.7499 78.3749 39.8676H79.8517C79.704 39.7058 79.6893 39.3233 79.8074 38.7201C79.8369 38.5877 79.8517 38.4848 79.8665 38.4259V38.3965C79.9994 37.7492 79.8665 37.3373 79.5268 37.1607C79.7926 37.0283 79.9994 36.8518 80.1471 36.6458C80.3095 36.4399 80.4129 36.1751 80.4867 35.8661C80.5458 35.6013 80.5458 35.3807 80.5163 35.1894C80.472 35.0129 80.4129 34.8511 80.28 34.7187C80.1619 34.6157 80.0142 34.5421 79.7926 34.498ZM78.877 36.5429C78.7441 36.6459 78.5521 36.7047 78.2863 36.7047H78.2124C78.2124 36.7047 78.1386 36.7047 78.1238 36.7047L78.4192 35.3807H78.5669C78.8475 35.3807 79.0247 35.4248 79.1133 35.5278C79.1871 35.6308 79.2019 35.7926 79.1724 36.028C79.1133 36.2781 79.0099 36.4546 78.877 36.5576" fill="#064F9B"/>
<path d="M80.6049 38.4112H82.8054L83.0564 37.3372H80.8559L80.6049 38.4112Z" fill="#064F9B"/>
<path d="M86.1577 34.4244C85.8032 34.4244 85.4931 34.4833 85.2273 34.6009C84.9467 34.7186 84.6956 34.8805 84.5036 35.1158C84.3559 35.2777 84.2231 35.5131 84.1049 35.8073C84.0015 36.1015 83.8686 36.5722 83.7209 37.2048C83.5732 37.8374 83.4847 38.3082 83.4699 38.6024C83.4551 38.8966 83.4699 39.132 83.5585 39.2938C83.6619 39.5292 83.8243 39.6911 84.0458 39.8087C84.2821 39.9264 84.5775 39.9853 84.9171 39.9853C85.5226 39.9853 85.9952 39.8234 86.3644 39.5145C86.7189 39.2056 86.9847 38.7201 87.1176 38.0728C87.1176 37.9992 87.1472 37.9404 87.1619 37.911C87.1619 37.8668 87.1619 37.8374 87.1619 37.7933H85.9066L85.8475 38.0434C85.7885 38.4112 85.6851 38.6612 85.5817 38.7789C85.4636 38.9261 85.3159 38.9849 85.1387 38.9849C84.9171 38.9849 84.799 38.8966 84.7694 38.7201C84.7399 38.5288 84.8138 38.0287 85.0057 37.2048V37.1018C85.1977 36.3368 85.3307 35.8661 85.4488 35.6896C85.567 35.513 85.7294 35.4248 85.9214 35.4248C86.1134 35.4248 86.2463 35.4983 86.2906 35.6454C86.3349 35.7925 86.3201 36.0426 86.2463 36.4104H87.4868V36.3516C87.6493 35.7043 87.605 35.2335 87.3687 34.9099C87.1324 34.5862 86.7337 34.4244 86.1429 34.4244" fill="#064F9B"/>
<path d="M91.8583 35.1306C91.755 34.8952 91.5777 34.7187 91.371 34.601C91.1347 34.4833 90.8393 34.4391 90.4849 34.4391C90.1305 34.4391 89.8203 34.4833 89.5545 34.601C89.2591 34.7187 89.0228 34.8952 88.8161 35.1306C88.6684 35.2924 88.5355 35.5131 88.4173 35.822C88.3139 36.1162 88.1958 36.5723 88.0334 37.2196C87.9005 37.8522 87.8118 38.3229 87.7971 38.6171C87.7675 38.9114 87.7971 39.1467 87.8709 39.3086C87.9743 39.5292 88.1515 39.7058 88.3583 39.8235C88.5946 39.9412 88.8899 40 89.2443 40C89.5988 40 89.9089 39.9412 90.1895 39.8235C90.4701 39.7058 90.7064 39.5292 90.8984 39.3086C91.0609 39.132 91.1938 38.8967 91.3119 38.6025C91.4153 38.3082 91.5482 37.8522 91.6959 37.2196C91.8435 36.5723 91.9174 36.1162 91.9469 35.822C91.9617 35.5131 91.9322 35.2924 91.8583 35.1306ZM90.4996 36.7341L90.2781 37.6904C90.16 38.2641 90.0418 38.6319 89.9237 38.779C89.8203 38.9114 89.6579 38.9849 89.4659 38.9849C89.2591 38.9849 89.141 38.9114 89.0967 38.779C89.0524 38.6172 89.0967 38.2641 89.2296 37.6904L89.4511 36.7341C89.584 36.1456 89.6874 35.7926 89.8055 35.6455C89.9089 35.5131 90.0714 35.4395 90.2486 35.4395C90.4554 35.4395 90.5882 35.5131 90.6325 35.6455C90.6768 35.7926 90.6325 36.1456 90.4996 36.7341Z" fill="#064F9B"/>
<path d="M95.3288 34.5568L95.1368 35.3953C95.0777 35.6748 95.0186 36.0132 94.9448 36.3957C94.8709 36.8076 94.7971 37.2783 94.7085 37.8373L94.3984 34.5568H93.0692L91.873 39.8675H93.0249L93.2169 38.9701C93.3055 38.5729 93.3793 38.1904 93.4532 37.7638C93.527 37.3519 93.5861 36.94 93.6304 36.4839L93.9406 39.8675H95.2697L96.4659 34.5568H95.3288Z" fill="#064F9B"/>
<path d="M100.365 35.1305C100.261 34.9098 100.099 34.7627 99.8774 34.6744C99.6411 34.5862 99.2719 34.542 98.755 34.542H97.3521L96.1706 39.8528H97.5588C98.0757 39.8528 98.4744 39.8087 98.7255 39.7204C99.0061 39.6468 99.2424 39.4998 99.4196 39.2938C99.582 39.1173 99.7002 38.9113 99.8183 38.6465C99.9069 38.3964 100.04 37.9109 100.202 37.2048C100.365 36.4986 100.453 36.0132 100.468 35.7484C100.483 35.4983 100.439 35.2923 100.365 35.1305ZM98.9618 36.9694L98.9027 37.2195C98.7845 37.7491 98.6812 38.1169 98.6369 38.2934C98.5778 38.4846 98.5187 38.6023 98.4597 38.6612C98.3858 38.7494 98.2972 38.8083 98.1938 38.8377C98.0905 38.8819 97.9871 38.8966 97.8394 38.8966H97.736C97.736 38.8966 97.6769 38.8966 97.6622 38.8819L98.4154 35.5424C98.4154 35.5424 98.4596 35.5424 98.4744 35.5277H98.5926C98.7255 35.5277 98.8437 35.5571 98.9323 35.5865C99.0209 35.6307 99.0799 35.6895 99.1242 35.7484C99.1537 35.8072 99.1538 35.9249 99.139 36.072C99.1242 36.2338 99.0652 36.5281 98.9618 36.9694Z" fill="#064F9B"/>
<path d="M101.576 34.5568L100.379 39.8675H101.664L102.861 34.5568H101.576Z" fill="#064F9B"/>
<path d="M105.475 34.4244C105.12 34.4244 104.81 34.4833 104.544 34.6009C104.264 34.7186 104.013 34.8805 103.821 35.1158C103.673 35.2777 103.54 35.5131 103.422 35.8073C103.318 36.1015 103.186 36.5722 103.038 37.2048C102.89 37.8374 102.802 38.3082 102.787 38.6024C102.772 38.8966 102.787 39.132 102.861 39.2938C102.979 39.5292 103.141 39.6911 103.363 39.8087C103.584 39.9264 103.894 39.9853 104.234 39.9853C104.84 39.9853 105.312 39.8234 105.681 39.5145C106.036 39.2056 106.302 38.7201 106.435 38.0728C106.435 37.9992 106.464 37.9404 106.479 37.911C106.479 37.8668 106.479 37.8374 106.479 37.7933H105.224L105.164 38.0434C105.105 38.4112 105.002 38.6612 104.899 38.7789C104.78 38.9261 104.633 38.9849 104.456 38.9849C104.234 38.9849 104.116 38.8966 104.086 38.7201C104.042 38.5288 104.131 38.0287 104.308 37.2048L104.337 37.1018C104.515 36.3368 104.648 35.8661 104.766 35.6896C104.884 35.513 105.046 35.4248 105.238 35.4248C105.43 35.4248 105.563 35.4983 105.608 35.6454C105.652 35.7925 105.637 36.0426 105.563 36.4104H106.804V36.3516C106.951 35.7043 106.922 35.2335 106.686 34.9099C106.449 34.5862 106.051 34.4244 105.46 34.4244" fill="#064F9B"/>
<path d="M108.059 34.5568L106.863 39.8675H108.133L109.329 34.5568H108.059Z" fill="#064F9B"/>
<path d="M113.316 35.1306C113.213 34.8952 113.051 34.7187 112.829 34.601C112.608 34.4833 112.312 34.4391 111.958 34.4391C111.603 34.4391 111.293 34.4833 111.027 34.601C110.732 34.7187 110.481 34.8952 110.289 35.1306C110.141 35.2924 110.008 35.5131 109.89 35.822C109.787 36.1162 109.654 36.5723 109.506 37.2196C109.359 37.8522 109.285 38.3229 109.255 38.6171C109.255 38.9114 109.27 39.1467 109.344 39.3086C109.447 39.5292 109.61 39.7058 109.831 39.8235C110.067 39.9412 110.363 40 110.702 40C111.042 40 111.382 39.9412 111.662 39.8235C111.928 39.7058 112.179 39.5292 112.371 39.3086C112.534 39.132 112.667 38.8967 112.785 38.6025C112.888 38.3082 113.006 37.8522 113.154 37.2196C113.302 36.5723 113.39 36.1162 113.405 35.822C113.435 35.5131 113.405 35.2924 113.316 35.1306ZM111.973 36.7341L111.751 37.6904C111.633 38.2641 111.5 38.6319 111.397 38.779C111.278 38.9114 111.131 38.9849 110.939 38.9849C110.732 38.9849 110.614 38.9114 110.57 38.779C110.525 38.6172 110.57 38.2641 110.702 37.6904L110.924 36.7341C111.057 36.1456 111.16 35.7926 111.264 35.6455C111.382 35.5131 111.529 35.4395 111.721 35.4395C111.928 35.4395 112.046 35.5131 112.105 35.6455C112.15 35.7926 112.105 36.1456 111.973 36.7341Z" fill="#064F9B"/>
<path d="M116.802 34.5568L116.595 35.3953C116.536 35.6748 116.492 36.0132 116.418 36.3957C116.344 36.8076 116.27 37.2783 116.182 37.8373L115.871 34.5568H114.542L113.346 39.8675H114.483L114.675 38.9701C114.764 38.5729 114.852 38.1904 114.911 37.7638C114.985 37.3519 115.044 36.94 115.103 36.4839L115.399 39.8675H116.728L117.924 34.5568H116.802Z" fill="#064F9B"/>
<path d="M117.23 39.8528H118.515L118.914 38.8377H119.903L119.844 39.8528H121.114V34.542H119.622L117.23 39.8528ZM119.992 37.8815H119.253L120.154 35.5718L119.992 37.8815Z" fill="#064F9B"/>
<path d="M125.338 34.6744C125.101 34.5862 124.732 34.542 124.215 34.542H122.812L121.616 39.8528H123.019C123.521 39.8528 123.92 39.8087 124.186 39.7204C124.452 39.6468 124.688 39.4998 124.88 39.2938C125.028 39.1173 125.161 38.9113 125.264 38.6465C125.367 38.3964 125.5 37.9109 125.663 37.2048C125.825 36.4986 125.914 36.0132 125.928 35.7484C125.928 35.4983 125.899 35.2923 125.825 35.1305C125.722 34.9098 125.559 34.7627 125.338 34.6744ZM124.422 36.9694L124.363 37.2195C124.23 37.7491 124.142 38.1169 124.097 38.2934C124.038 38.4846 123.979 38.6023 123.905 38.6612C123.831 38.7494 123.743 38.8083 123.639 38.8377C123.551 38.8819 123.433 38.8966 123.3 38.8966H123.182C123.182 38.8966 123.137 38.8966 123.108 38.8819L123.876 35.5424C123.876 35.5424 123.905 35.5424 123.935 35.5277H124.038C124.186 35.5277 124.304 35.5571 124.393 35.5865C124.481 35.6307 124.54 35.6895 124.57 35.7484C124.614 35.8072 124.614 35.9249 124.599 36.072C124.585 36.2338 124.511 36.5281 124.422 36.9694Z" fill="#064F9B"/>
<path d="M129.65 34.601C129.429 34.4833 129.133 34.4391 128.779 34.4391C128.424 34.4391 128.114 34.4833 127.834 34.601C127.553 34.7187 127.302 34.8952 127.11 35.1306C126.962 35.2924 126.829 35.5131 126.711 35.822C126.608 36.1162 126.475 36.5723 126.327 37.2196C126.18 37.8522 126.106 38.3229 126.076 38.6171C126.076 38.9114 126.091 39.1467 126.165 39.3086C126.268 39.5292 126.431 39.7058 126.652 39.8235C126.888 39.9412 127.184 40 127.523 40C127.863 40 128.203 39.9412 128.483 39.8235C128.749 39.7058 129 39.5292 129.192 39.3086C129.355 39.132 129.488 38.8967 129.606 38.6025C129.709 38.3082 129.827 37.8522 129.975 37.2196C130.123 36.5723 130.211 36.1162 130.226 35.822C130.256 35.5131 130.226 35.2924 130.137 35.1306C130.034 34.8952 129.872 34.7187 129.65 34.601ZM128.794 36.7341L128.572 37.6904C128.439 38.2641 128.321 38.6319 128.218 38.779C128.099 38.9114 127.952 38.9849 127.76 38.9849C127.553 38.9849 127.435 38.9114 127.391 38.779C127.346 38.6172 127.391 38.2641 127.523 37.6904L127.745 36.7341C127.878 36.1456 127.981 35.7926 128.085 35.6455C128.203 35.5131 128.365 35.4395 128.542 35.4395C128.749 35.4395 128.867 35.5131 128.926 35.6455C128.971 35.7926 128.926 36.1456 128.794 36.7341Z" fill="#064F9B"/>
<path d="M135.823 34.6744C135.587 34.5862 135.218 34.542 134.701 34.542H133.298L132.116 39.8528H133.505C134.021 39.8528 134.42 39.8087 134.671 39.7204C134.952 39.6468 135.188 39.4998 135.365 39.2938C135.528 39.1173 135.646 38.9113 135.764 38.6465C135.853 38.3964 135.986 37.9109 136.148 37.2048C136.311 36.4986 136.399 36.0132 136.414 35.7484C136.429 35.4983 136.384 35.2923 136.311 35.1305C136.207 34.9098 136.045 34.7627 135.823 34.6744ZM134.908 36.9694L134.848 37.2195C134.73 37.7491 134.627 38.1169 134.583 38.2934C134.524 38.4846 134.465 38.6023 134.405 38.6612C134.332 38.7494 134.243 38.8083 134.14 38.8377C134.036 38.8819 133.933 38.8966 133.785 38.8966H133.667C133.667 38.8966 133.623 38.8966 133.608 38.8819L134.361 35.5424C134.361 35.5424 134.405 35.5424 134.42 35.5277H134.538C134.671 35.5277 134.789 35.5571 134.878 35.5865C134.967 35.6307 135.026 35.6895 135.07 35.7484C135.1 35.8072 135.1 35.9249 135.085 36.072C135.07 36.2338 135.011 36.5281 134.908 36.9694Z" fill="#064F9B"/>
<path d="M140.15 34.601C139.914 34.4833 139.619 34.4391 139.264 34.4391C138.91 34.4391 138.6 34.4833 138.334 34.601C138.038 34.7187 137.787 34.8952 137.595 35.1306C137.448 35.2924 137.315 35.5131 137.197 35.822C137.093 36.1162 136.96 36.5723 136.813 37.2196C136.665 37.8522 136.591 38.3229 136.562 38.6171C136.562 38.9114 136.576 39.1467 136.65 39.3086C136.754 39.5292 136.916 39.7058 137.138 39.8235C137.374 39.9412 137.669 40 138.009 40C138.349 40 138.688 39.9412 138.969 39.8235C139.235 39.7058 139.486 39.5292 139.678 39.3086C139.84 39.132 139.973 38.8967 140.091 38.6025C140.195 38.3082 140.327 37.8522 140.46 37.2196C140.608 36.5723 140.697 36.1162 140.711 35.822C140.741 35.5131 140.711 35.2924 140.623 35.1306C140.519 34.8952 140.357 34.7187 140.15 34.601ZM139.279 36.7341L139.057 37.6904C138.939 38.2641 138.806 38.6319 138.703 38.779C138.585 38.9114 138.437 38.9849 138.245 38.9849C138.038 38.9849 137.92 38.9114 137.876 38.779C137.832 38.6172 137.876 38.2641 138.009 37.6904L138.23 36.7341C138.363 36.1456 138.467 35.7926 138.585 35.6455C138.688 35.5131 138.851 35.4395 139.028 35.4395C139.235 35.4395 139.368 35.5131 139.412 35.6455C139.456 35.7926 139.412 36.1456 139.279 36.7341Z" fill="#064F9B"/>
<path d="M145.91 36.7929C145.91 36.7929 145.836 36.9988 145.718 37.293C145.6 37.602 145.511 37.8521 145.437 38.0581C145.467 37.7785 145.482 37.5137 145.511 37.2342C145.541 36.9694 145.555 36.8223 145.555 36.8076V34.5568H143.783L142.587 39.8528H143.783L144.61 35.7631L144.536 39.8528H145.526L147.313 35.7631L146.264 39.8528H147.461L148.672 34.5568H146.899L145.91 36.7929Z" fill="#064F9B"/>
<path d="M151.729 34.5568L150.975 37.8815C150.857 38.3817 150.769 38.6906 150.68 38.8083C150.591 38.9407 150.458 38.9996 150.281 38.9996C150.134 38.9996 150.03 38.9407 149.986 38.823C149.942 38.7053 149.986 38.3817 150.104 37.8815L150.842 34.5568H149.558L148.923 37.4108C148.775 38.0286 148.701 38.4553 148.686 38.7054C148.657 38.9554 148.686 39.1761 148.745 39.3379C148.834 39.5586 148.967 39.7351 149.174 39.8381C149.38 39.9411 149.661 39.9999 150.03 39.9999C150.399 39.9999 150.754 39.9411 151.02 39.8234C151.3 39.7204 151.522 39.5439 151.699 39.2938C151.817 39.1614 151.906 38.9995 151.994 38.8083C152.053 38.6171 152.142 38.3228 152.231 37.9403L152.999 34.5568H151.729Z" fill="#064F9B"/>
<path d="M156.144 34.5568L155.952 35.3953C155.878 35.6748 155.834 36.0132 155.76 36.3957C155.686 36.8076 155.613 37.2783 155.524 37.8373L155.214 34.5568H153.885L152.689 39.8675H153.84L154.032 38.9701C154.121 38.5729 154.195 38.1904 154.269 37.7638C154.328 37.3519 154.402 36.94 154.446 36.4839L154.741 39.8675H156.085L157.267 34.5568H156.144Z" fill="#064F9B"/>
<path d="M160.693 34.6744C160.457 34.5862 160.087 34.542 159.571 34.542H158.168L156.971 39.8528H158.374C158.876 39.8528 159.275 39.8087 159.541 39.7204C159.822 39.6468 160.058 39.4998 160.235 39.2938C160.383 39.1173 160.516 38.9113 160.619 38.6465C160.722 38.3964 160.855 37.9109 161.018 37.2048C161.18 36.4986 161.269 36.0132 161.284 35.7484C161.298 35.4983 161.254 35.2923 161.18 35.1305C161.077 34.9098 160.914 34.7627 160.693 34.6744ZM159.777 36.9694L159.718 37.2195C159.585 37.7491 159.497 38.1169 159.452 38.2934C159.393 38.4846 159.334 38.6023 159.275 38.6612C159.187 38.7494 159.098 38.8083 158.995 38.8377C158.906 38.8819 158.788 38.8966 158.655 38.8966H158.537C158.537 38.8966 158.492 38.8966 158.463 38.8819L159.231 35.5424C159.231 35.5424 159.275 35.5424 159.29 35.5277H159.408C159.541 35.5277 159.659 35.5571 159.748 35.5865C159.836 35.6307 159.895 35.6895 159.94 35.7484C159.969 35.8072 159.969 35.9249 159.954 36.072C159.94 36.2338 159.881 36.5281 159.777 36.9694Z" fill="#064F9B"/>
<path d="M165.493 35.1306C165.389 34.8952 165.227 34.7187 165.005 34.601C164.784 34.4833 164.488 34.4391 164.134 34.4391C163.779 34.4391 163.469 34.4833 163.189 34.601C162.908 34.7187 162.657 34.8952 162.465 35.1306C162.317 35.2924 162.184 35.5131 162.066 35.822C161.963 36.1162 161.83 36.5723 161.682 37.2196C161.535 37.8522 161.461 38.3229 161.431 38.6171C161.431 38.9114 161.446 39.1467 161.52 39.3086C161.623 39.5292 161.786 39.7058 162.007 39.8235C162.244 39.9412 162.539 40 162.879 40C163.218 40 163.558 39.9412 163.839 39.8235C164.104 39.7058 164.355 39.5292 164.547 39.3086C164.71 39.132 164.843 38.8967 164.961 38.6025C165.064 38.3082 165.182 37.8522 165.33 37.2196C165.478 36.5723 165.566 36.1162 165.581 35.822C165.611 35.5131 165.581 35.2924 165.493 35.1306ZM164.149 36.7341L163.927 37.6904C163.809 38.2641 163.676 38.6319 163.573 38.779C163.455 38.9114 163.307 38.9849 163.115 38.9849C162.908 38.9849 162.79 38.9114 162.746 38.779C162.701 38.6172 162.746 38.2641 162.879 37.6904L163.1 36.7341C163.233 36.1456 163.336 35.7926 163.44 35.6455C163.558 35.5131 163.706 35.4395 163.898 35.4395C164.104 35.4395 164.223 35.5131 164.282 35.6455C164.326 35.7926 164.282 36.1456 164.149 36.7341Z" fill="#064F9B"/>
</svg>